<?xml version="1.0" ?><svg viewBox="0 0 512 512" xmlns="http://www.w3.org/2000/svg"><g id="E-learning_video"><path d="M465.3362,95.0549H443.4023a14.691,14.691,0,0,0,.7793-4.7V25.5625a14.7955,14.7955,0,0,0-14.7783-14.7783l-313.1871.0007a19.4589,19.4589,0,0,0-19.44,19.43v64.84h-50.11a31.56,31.56,0,0,0-31.53,31.53V343.2837c0,.0085-.0025.0163-.0025.0249s.0024.0164.0025.0249v41.2214a31.5665,31.5665,0,0,0,31.53,31.53h171.52l-10.279,75.1308H183.5215a5,5,0,0,0,0,10h146.875a5,5,0,0,0,0-10H306.0153L295.7362,416.085h169.6a31.573,31.573,0,0,0,31.53-31.53V126.585A31.5668,31.5668,0,0,0,465.3362,95.0549Zm21.53,31.53v11.91h-71.66V105.1333l50.13-.0784A21.55,21.55,0,0,1,486.8662,126.585Zm-380.09-52.91h75.1591a38.5046,38.5046,0,0,0,7.1209,41.02,18.5822,18.5822,0,0,1,4.79,15.54,16.4541,16.4541,0,0,1-8.29,12.02,25.8513,25.8513,0,0,1-2.8,1.37c-16.53,6.8-27.21,23.21-27.21,41.79v49.33h-39.33a9.4489,9.4489,0,0,1-9.44-9.43Zm140.28,12.08a29.2961,29.2961,0,0,1-7.73,22.94,27.288,27.288,0,0,0-7.2,21.09,25.1619,25.1619,0,0,0,10.3,18.12,34.4458,34.4458,0,0,0,7.06,3.98c13.23,5.51,21.77,18.79,21.77,33.83v49.03h-68.94v-46.14a4.5,4.5,0,0,0-9,0v46.14h-28.77v-49.33c0-14.69,8.69-28.14,21.64-33.47a35.118,35.118,0,0,0,3.8-1.85,25.6572,25.6572,0,0,0,12.75-18.46,27.5284,27.5284,0,0,0-7.05-23.03,29.6346,29.6346,0,1,1,51.37-22.85Zm25.77,74.48a43.7484,43.7484,0,0,0-19.88-16.65,25.1654,25.1654,0,0,1-5.21-2.95,16.2573,16.2573,0,0,1-6.65-11.72,18.2633,18.2633,0,0,1,4.85-14.1,38.7548,38.7548,0,0,0,10.09-29.9,38.204,38.204,0,0,0-2.8213-11.24H308.88V89.6621A14.7955,14.7955,0,0,0,323.6582,104.44h34.3095v24.5869a4.5,4.5,0,0,0,7.4815,3.37l31.6064-27.2642h8.1506V225.3149a9.4425,9.4425,0,0,1-9.44,9.43h-115.51v-49.03A46.81,46.81,0,0,0,272.8263,160.2349ZM435.1816,25.5625V90.355a5.7844,5.7844,0,0,1-5.7783,5.7783H395.3506a4.4952,4.4952,0,0,0-2.9815,1.13l-25.4014,21.7759V99.94a4.5,4.5,0,0,0-4.5-4.5H323.6582a5.7844,5.7844,0,0,1-5.7783-5.7783v-64.1a5.7844,5.7844,0,0,1,5.7783-5.7783H429.4033A5.7844,5.7844,0,0,1,435.1816,25.5625ZM116.2162,20.7849H309.6877a14.6848,14.6848,0,0,0-.8078,4.7776V63.675H247.061a38.5553,38.5553,0,0,0-59.0021,0H106.7762v-33.46A9.449,9.449,0,0,1,116.2162,20.7849Zm-69.55,84.27h50.11v33.44h-71.64v-11.91A21.55,21.55,0,0,1,46.6662,105.0549Zm249.25,386.16h-77.92l10.28-75.13h57.36Zm169.42-85.13H46.6662a21.5565,21.5565,0,0,1-21.53-21.53V348.3086H414.99a5,5,0,0,0,0-10H25.1363V148.4951h71.64v76.82a19.4591,19.4591,0,0,0,19.44,19.43h279.55a19.4591,19.4591,0,0,0,19.44-19.43v-76.82h71.66V338.3086h-49.49a5,5,0,0,0,0,10h49.49v36.2463A21.5566,21.5566,0,0,1,465.3362,406.085Z"/><path d="M255.998,360.5205a16.7237,16.7237,0,1,0,16.7236,16.7236A16.7423,16.7423,0,0,0,255.998,360.5205Zm0,23.4473a6.7237,6.7237,0,1,1,6.7236-6.7237A6.7318,6.7318,0,0,1,255.998,383.9678Z"/><path d="M280.3916,280.6943,259.581,267.665a9.1621,9.1621,0,0,0-14.0254,7.7657v28.7617a9.1525,9.1525,0,0,0,14.6875,7.3086L281.0547,295.77a9.1632,9.1632,0,0,0-.6631-15.0752ZM255.5556,302.51V276.9434l18.4991,11.582Z"/><path d="M372.75,280.6943,351.9394,267.665a9.1621,9.1621,0,0,0-14.0254,7.7657v28.7617a9.1525,9.1525,0,0,0,14.6875,7.3086L373.4131,295.77a9.1631,9.1631,0,0,0-.6631-15.0752ZM347.914,302.51V276.9434l18.4991,11.582Z"/><path d="M324.6543,266.9775a5,5,0,0,0-5,5v35.669a5,5,0,0,0,10,0v-35.669A5,5,0,0,0,324.6543,266.9775Z"/><path d="M168.9931,267.2285a9.1147,9.1147,0,0,0-9.6084.8936l-20.81,15.7314a9.1635,9.1635,0,0,0,.6621,15.0762L160.05,311.96a9.1622,9.1622,0,0,0,14.0234-7.7666V275.4316A9.11,9.11,0,0,0,168.9931,267.2285Zm-4.92,35.4522-18.499-11.5821,18.499-13.9853Z"/><path d="M187.333,266.9775a5,5,0,0,0-5,5v35.669a5,5,0,0,0,10,0v-35.669A5,5,0,0,0,187.333,266.9775Z"/><path d="M134.5713,53.38A12.3653,12.3653,0,1,0,122.206,41.0146,12.3789,12.3789,0,0,0,134.5713,53.38Zm0-16.73a4.3653,4.3653,0,1,1-4.3653,4.3652A4.37,4.37,0,0,1,134.5713,36.6494Z"/><path d="M168.8672,53.38a12.3653,12.3653,0,1,0-12.3643-12.3653A12.3791,12.3791,0,0,0,168.8672,53.38Zm0-16.73a4.3653,4.3653,0,1,1-4.3643,4.3652A4.37,4.37,0,0,1,168.8672,36.6494Z"/><path d="M225.1982,91.791a10.9622,10.9622,0,0,1-14.45.1231,4.5,4.5,0,0,0-5.9775,6.7285,20.7246,20.7246,0,0,0,13.2676,4.9726A20.08,20.08,0,0,0,230.86,98.7871a4.5,4.5,0,1,0-5.6621-6.9961Z"/><path d="M339.2177,52.2979h74.1289a4.5,4.5,0,0,0,0-9H339.2177a4.5,4.5,0,0,0,0,9Z"/><path d="M339.2177,76.2314h37.9131a4.5,4.5,0,0,0,0-9H339.2177a4.5,4.5,0,0,0,0,9Z"/><path d="M413.3466,67.2314H396.6279a4.5,4.5,0,0,0,0,9h16.7187a4.5,4.5,0,0,0,0-9Z"/></g></svg>